# xmcd
#
# Track frame offsets:
#	182
#	17635
#	39715
#	77170
#
# Disc length: 1552 seconds
#
# Revision: 2
# Processed by: cddbd v1.4PL0 Copyright (c) Steve Scherf et al.
# Submitted via: EasyCDDAExtractor 4.6.9.1
#
DISCID=27060e04
DTITLE=Yosh featuring Lovedeejay Akemi - It's What's Up Front That Counts
DYEAR=1900
DGENRE=Blues
TTITLE0=It's What's Up Front That Counts (Umboza 7' Mix)
TTITLE1=It's What's Up Front That Counts (Original 12' Extended Mix)
TTITLE2=It's What's Up Front That Counts (Skam Remix)
TTITLE3=It's What's Up Front That Counts (Madass Goes To Ibiza)
EXTD=
EXTT0=
EXTT1=
EXTT2=
EXTT3=
PLAYORDER=
